<svg xmlns="http://www.w3.org/2000/svg" width="41.959" height="31.013" viewBox="0 0 41.959 31.013"><defs><style>.a{fill:#5d5d5d;}</style></defs><g transform="translate(0)"><g transform="translate(5.473 5.473)"><path class="a" d="M64.912,148.067a.912.912,0,0,1-.912-.912V128.912a.912.912,0,0,1,1.824,0v18.243A.912.912,0,0,1,64.912,148.067Z" transform="translate(-64 -128)"/><path class="a" d="M107.578,144.419a.912.912,0,0,1-.912-.912V128.912a.912.912,0,0,1,1.824,0v14.594A.912.912,0,0,1,107.578,144.419Z" transform="translate(-103.017 -128)"/><path class="a" d="M150.245,144.419a.912.912,0,0,1-.912-.912V128.912a.912.912,0,0,1,1.824,0v14.594A.912.912,0,0,1,150.245,144.419Z" transform="translate(-142.036 -128)"/><path class="a" d="M192.912,144.419a.912.912,0,0,1-.912-.912V128.912a.912.912,0,0,1,1.824,0v14.594A.912.912,0,0,1,192.912,144.419Z" transform="translate(-181.054 -128)"/><path class="a" d="M235.578,148.067a.912.912,0,0,1-.912-.912V128.912a.912.912,0,0,1,1.824,0v18.243A.912.912,0,0,1,235.578,148.067Z" transform="translate(-220.072 -128)"/><path class="a" d="M278.245,144.419a.912.912,0,0,1-.912-.912V128.912a.912.912,0,1,1,1.824,0v14.594A.912.912,0,0,1,278.245,144.419Z" transform="translate(-259.09 -128)"/><path class="a" d="M320.912,144.419a.912.912,0,0,1-.912-.912V128.912a.912.912,0,0,1,1.824,0v14.594A.912.912,0,0,1,320.912,144.419Z" transform="translate(-298.108 -128)"/><path class="a" d="M363.578,144.419a.912.912,0,0,1-.912-.912V128.912a.912.912,0,0,1,1.824,0v14.594A.912.912,0,0,1,363.578,144.419Z" transform="translate(-337.126 -128)"/><path class="a" d="M406.245,148.067a.912.912,0,0,1-.912-.912V128.912a.912.912,0,0,1,1.824,0v18.243A.912.912,0,0,1,406.245,148.067Z" transform="translate(-376.144 -128)"/><path class="a" d="M107.576,343.212a.741.741,0,0,1-.347-.073.646.646,0,0,1-.292-.2.881.881,0,0,1-.031-1.246l.031-.031a.644.644,0,0,1,.292-.2.9.9,0,0,1,.985.2.912.912,0,0,1-.639,1.551Z" transform="translate(-103.015 -323.144)"/><path class="a" d="M150.243,343.2a.741.741,0,0,1-.347-.073.647.647,0,0,1-.292-.2.881.881,0,0,1-.031-1.246l.031-.031a.644.644,0,0,1,.292-.2.894.894,0,0,1,.985.2.646.646,0,0,1,.2.292.86.86,0,0,1,0,.693.639.639,0,0,1-.2.292A.854.854,0,0,1,150.243,343.2Z" transform="translate(-142.034 -323.13)"/><path class="a" d="M192.91,343.2a.741.741,0,0,1-.347-.073.647.647,0,0,1-.292-.2.881.881,0,0,1-.031-1.246l.031-.031a.644.644,0,0,1,.292-.2.894.894,0,0,1,.985.2.646.646,0,0,1,.2.292.86.86,0,0,1,0,.693.638.638,0,0,1-.2.292A.854.854,0,0,1,192.91,343.2Z" transform="translate(-181.052 -323.13)"/><path class="a" d="M278.382,343.3a.907.907,0,1,1,.638-1.551.647.647,0,0,1,.2.292.859.859,0,0,1,0,.693.638.638,0,0,1-.2.292A.854.854,0,0,1,278.382,343.3Z" transform="translate(-259.227 -323.229)"/><path class="a" d="M321.049,343.3a.912.912,0,1,1,.626-.261A.912.912,0,0,1,321.049,343.3Z" transform="translate(-298.246 -323.229)"/><path class="a" d="M363.578,343.3a.853.853,0,0,1-.639-.274.637.637,0,0,1-.2-.292.86.86,0,0,1,0-.693.644.644,0,0,1,.2-.292.9.9,0,1,1,.639,1.551Z" transform="translate(-337.125 -323.229)"/></g><g transform="translate(0)"><path class="a" d="M.912,71.3A.912.912,0,0,1,0,70.385V64.912A.912.912,0,0,1,.912,64H6.385a.912.912,0,1,1,0,1.824H1.824v4.561A.912.912,0,0,1,.912,71.3Z" transform="translate(0 -64)"/><path class="a" d="M6.385,348.63H.912A.912.912,0,0,1,0,347.718v-5.473a.912.912,0,1,1,1.824,0v4.561H6.385a.912.912,0,0,1,0,1.824Z" transform="translate(0 -317.617)"/><path class="a" d="M411.718,71.3a.912.912,0,0,1-.912-.912V65.824h-4.561a.912.912,0,1,1,0-1.824h5.473a.912.912,0,0,1,.912.912v5.473A.912.912,0,0,1,411.718,71.3Z" transform="translate(-370.671 -64)"/><path class="a" d="M411.718,348.63h-5.473a.912.912,0,1,1,0-1.824h4.561v-4.561a.912.912,0,1,1,1.824,0v5.473A.912.912,0,0,1,411.718,348.63Z" transform="translate(-370.671 -317.617)"/></g><path class="a" d="M64.912,148.067a.912.912,0,0,1-.912-.912V128.912a.912.912,0,0,1,1.824,0v18.243A.912.912,0,0,1,64.912,148.067Z" transform="translate(-58.527 -122.527)"/><path class="a" d="M107.578,144.419a.912.912,0,0,1-.912-.912V128.912a.912.912,0,0,1,1.824,0v14.594A.912.912,0,0,1,107.578,144.419Z" transform="translate(-97.544 -122.527)"/><path class="a" d="M150.245,144.419a.912.912,0,0,1-.912-.912V128.912a.912.912,0,0,1,1.824,0v14.594A.912.912,0,0,1,150.245,144.419Z" transform="translate(-136.563 -122.527)"/><path class="a" d="M192.912,144.419a.912.912,0,0,1-.912-.912V128.912a.912.912,0,0,1,1.824,0v14.594A.912.912,0,0,1,192.912,144.419Z" transform="translate(-175.581 -122.527)"/><path class="a" d="M235.578,148.067a.912.912,0,0,1-.912-.912V128.912a.912.912,0,0,1,1.824,0v18.243A.912.912,0,0,1,235.578,148.067Z" transform="translate(-214.599 -122.527)"/><path class="a" d="M278.245,144.419a.912.912,0,0,1-.912-.912V128.912a.912.912,0,1,1,1.824,0v14.594A.912.912,0,0,1,278.245,144.419Z" transform="translate(-253.617 -122.527)"/><path class="a" d="M320.912,144.419a.912.912,0,0,1-.912-.912V128.912a.912.912,0,0,1,1.824,0v14.594A.912.912,0,0,1,320.912,144.419Z" transform="translate(-292.635 -122.527)"/><path class="a" d="M363.578,144.419a.912.912,0,0,1-.912-.912V128.912a.912.912,0,0,1,1.824,0v14.594A.912.912,0,0,1,363.578,144.419Z" transform="translate(-331.653 -122.527)"/><path class="a" d="M406.245,148.067a.912.912,0,0,1-.912-.912V128.912a.912.912,0,0,1,1.824,0v18.243A.912.912,0,0,1,406.245,148.067Z" transform="translate(-370.671 -122.527)"/><path class="a" d="M107.585,343.207a.75.75,0,0,1-.347-.073.651.651,0,0,1-.292-.2.883.883,0,0,1-.029-1.248l.029-.029a.65.65,0,0,1,.292-.2.912.912,0,0,1,.693,0,.64.64,0,0,1,.292.2.912.912,0,0,1-.639,1.551Z" transform="translate(-97.551 -317.666)"/><path class="a" d="M150.363,343.189a.912.912,0,0,1-.64-1.551.89.89,0,0,1,.985-.2.64.64,0,0,1,.292.2.912.912,0,0,1-.637,1.551Z" transform="translate(-136.681 -317.649)"/><path class="a" d="M193.03,343.211a.912.912,0,0,1-.64-1.551.65.65,0,0,1,.292-.2.9.9,0,0,1,.985.2.912.912,0,0,1-.639,1.551h0Z" transform="translate(-175.699 -317.671)"/><path class="a" d="M278.252,343.207a.8.8,0,0,1-.347-.073.651.651,0,0,1-.292-.2.883.883,0,0,1-.029-1.248l.029-.029a.65.65,0,0,1,.292-.2.912.912,0,0,1,.693,0,.64.64,0,0,1,.292.2.912.912,0,0,1-.639,1.551Z" transform="translate(-253.624 -317.666)"/><path class="a" d="M320.919,343.3a.8.8,0,0,1-.347-.073.651.651,0,0,1-.292-.2.883.883,0,0,1-.029-1.248l.029-.029a.912.912,0,0,1,1.277,0,.879.879,0,0,1,.034,1.243l-.034.034a.642.642,0,0,1-.292.2A.794.794,0,0,1,320.919,343.3Z" transform="translate(-292.642 -317.756)"/><path class="a" d="M363.573,343.212a.8.8,0,0,1-.347-.073.651.651,0,0,1-.292-.2.856.856,0,0,1-.274-.639.729.729,0,0,1,.073-.347.642.642,0,0,1,.2-.292.65.65,0,0,1,.292-.2.9.9,0,0,1,.985.2.661.661,0,0,1,.2.292.73.73,0,0,1,.073.347.938.938,0,0,1-.912.912Z" transform="translate(-331.648 -317.672)"/><path class="a" d="M.912,71.3A.912.912,0,0,1,0,70.385V64.912A.912.912,0,0,1,.912,64H6.385a.912.912,0,1,1,0,1.824H1.824v4.561A.912.912,0,0,1,.912,71.3Z" transform="translate(0 -64)"/><path class="a" d="M6.385,348.63H.912A.912.912,0,0,1,0,347.718v-5.473a.912.912,0,1,1,1.824,0v4.561H6.385a.912.912,0,0,1,0,1.824Z" transform="translate(0 -317.617)"/><path class="a" d="M411.718,71.3a.912.912,0,0,1-.912-.912V65.824h-4.561a.912.912,0,1,1,0-1.824h5.473a.912.912,0,0,1,.912.912v5.473A.912.912,0,0,1,411.718,71.3Z" transform="translate(-370.671 -64)"/><path class="a" d="M411.718,348.63h-5.473a.912.912,0,1,1,0-1.824h4.561v-4.561a.912.912,0,1,1,1.824,0v5.473A.912.912,0,0,1,411.718,348.63Z" transform="translate(-370.671 -317.617)"/></g></svg>