<svg xmlns="http://www.w3.org/2000/svg" width="44.717" height="35.196" viewBox="0 0 44.717 35.196"><defs><style>.a{fill:#5d5d5d;}</style></defs><g transform="translate(0 0)"><g transform="translate(0 0)"><path class="a" d="M43.23,50.283A4.808,4.808,0,0,0,39.7,48.8H32.645v-.085A3.816,3.816,0,0,0,31.5,45.948,3.889,3.889,0,0,0,28.735,44.8H15.983a3.919,3.919,0,0,0-3.953,3.911V48.8H5.016a4.808,4.808,0,0,0-3.528,1.488A5.054,5.054,0,0,0,0,53.811V74.98a4.808,4.808,0,0,0,1.488,3.528A5.054,5.054,0,0,0,5.016,80H39.7a4.808,4.808,0,0,0,3.528-1.488,5.054,5.054,0,0,0,1.488-3.528V53.811A4.808,4.808,0,0,0,43.23,50.283Zm-.723,24.7h-.043A2.757,2.757,0,0,1,39.7,77.743H5.016A2.757,2.757,0,0,1,2.253,74.98V53.811a2.757,2.757,0,0,1,2.763-2.763h8.2A1.143,1.143,0,0,0,14.367,49.9V48.668a1.6,1.6,0,0,1,1.658-1.658h12.71a1.6,1.6,0,0,1,1.658,1.658V49.9a1.143,1.143,0,0,0,1.148,1.148h8.2a2.757,2.757,0,0,1,2.763,2.763Z" transform="translate(0 -44.8)"/><path class="a" d="M122.457,130.8a10.449,10.449,0,1,0,7.4,3.06A10.475,10.475,0,0,0,122.457,130.8Zm5.781,16.28a8.21,8.21,0,0,1-11.562,0,8.126,8.126,0,0,1-2.38-5.781,8.307,8.307,0,0,1,2.38-5.781,8.126,8.126,0,0,1,5.781-2.38,8.307,8.307,0,0,1,5.781,2.38,8.126,8.126,0,0,1,2.38,5.781A7.954,7.954,0,0,1,128.238,147.08Z" transform="translate(-100.098 -121.661)"/><circle class="a" cx="2.083" cy="2.083" r="2.083" transform="translate(35.408 9.096)"/></g></g></svg>