<svg xmlns="http://www.w3.org/2000/svg" width="101" height="101" viewBox="0 0 101 101"><defs><style>.a{fill:#fff;stroke:#707070;stroke-width:3px;}.b{fill:#5d5d5d;}.c{stroke:none;}.d{fill:none;}</style></defs><g transform="translate(0 0.439)"><g class="a" transform="translate(0 -0.439)"><circle class="c" cx="50.5" cy="50.5" r="50.5"/><circle class="d" cx="50.5" cy="50.5" r="49"/></g><g transform="translate(21.216 19.22)"><g transform="translate(8.662 54.358)"><path class="b" d="M55.9,451.222l-.011-.008a1.205,1.205,0,0,0-1.466,1.914l.011.008a1.205,1.205,0,0,0,1.466-1.914Z" transform="translate(-53.953 -450.965)"/></g><g transform="translate(8.662 44.474)"><path class="b" d="M55.9,369.222l-.011-.009a1.205,1.205,0,0,0-1.466,1.914l.011.008a1.205,1.205,0,0,0,1.466-1.914Z" transform="translate(-53.953 -368.965)"/></g><g transform="translate(8.662 34.59)"><path class="b" d="M55.9,287.222l-.011-.008a1.205,1.205,0,0,0-1.466,1.914l.011.009a1.205,1.205,0,0,0,1.466-1.914Z" transform="translate(-53.953 -286.965)"/></g><g transform="translate(54.943 54.358)"><path class="b" d="M439.851,451.217l-.011-.008a1.205,1.205,0,1,0-1.456,1.921l.011.008a1.205,1.205,0,1,0,1.456-1.921Z" transform="translate(-437.906 -450.964)"/></g><g transform="translate(54.943 44.474)"><path class="b" d="M439.852,369.218l-.011-.008a1.205,1.205,0,1,0-1.456,1.921l.011.008a1.205,1.205,0,1,0,1.456-1.921Z" transform="translate(-437.907 -368.965)"/></g><g transform="translate(54.943 34.59)"><path class="b" d="M439.851,287.218l-.011-.008a1.205,1.205,0,1,0-1.456,1.921l.011.008a1.205,1.205,0,1,0,1.456-1.921Z" transform="translate(-437.906 -286.965)"/></g><g transform="translate(45.473 39.536)"><path class="b" d="M360.563,328h-.016a1.205,1.205,0,0,0,0,2.411h.016a1.205,1.205,0,0,0,0-2.411Z" transform="translate(-359.342 -328)"/></g><g transform="translate(18.133 49.42)"><path class="b" d="M133.749,410h-.016a1.205,1.205,0,1,0,0,2.411h.016a1.205,1.205,0,1,0,0-2.411Z" transform="translate(-132.528 -410)"/></g><g transform="translate(9.839 21.969)"><path class="b" d="M65.778,182.613a1.2,1.2,0,1,0,.353.853A1.215,1.215,0,0,0,65.778,182.613Z" transform="translate(-63.72 -182.26)"/></g><g transform="translate(0)"><path class="b" d="M60.51,29.652H55.5a7.172,7.172,0,0,0-.342-12.633A7.177,7.177,0,0,0,45.1,7.828a8.333,8.333,0,0,0-4.8-1.522c-.117,0-.234,0-.35.009A9.326,9.326,0,0,0,22.716,5.3c-.288-.027-.578-.04-.868-.04a9.331,9.331,0,0,0-8.594,5.7q-.383-.117-.778-.2a5.342,5.342,0,0,1,1.461-3.516A3.23,3.23,0,0,1,15.423,6.4l-.017,0h0A1.2,1.2,0,0,0,15.233,4a1.194,1.194,0,0,0-.2.018v0a5.276,5.276,0,0,0-2.6,1.329V1.205A1.205,1.205,0,0,0,11.229,0H8.336A1.205,1.205,0,0,0,7.13,1.205V5.712a14.5,14.5,0,0,0-3-2.769A1.205,1.205,0,0,0,2.812,4.961c.04.026,3.687,2.468,4.229,5.981A9.588,9.588,0,0,0,0,19.975c0,1.754,1,5.966,1.982,9.677H1.205A1.205,1.205,0,0,0,0,30.858V60.51a1.205,1.205,0,0,0,1.205,1.205h59.3a1.205,1.205,0,0,0,1.205-1.205V30.858A1.205,1.205,0,0,0,60.51,29.652ZM21.848,7.666a6.969,6.969,0,0,1,1.38.138A1.205,1.205,0,0,0,24.6,7.024a6.916,6.916,0,0,1,12.944-.251,8.36,8.36,0,0,0-5.6,7.88,1.205,1.205,0,0,0,2.411,0,5.935,5.935,0,0,1,9.873-4.442,1.206,1.206,0,0,0,1.524.062,4.72,4.72,0,0,1,2.856-.951,4.763,4.763,0,0,1,3.823,7.6,1.206,1.206,0,0,0,.672,1.889,4.763,4.763,0,0,1-1.169,9.38,4.81,4.81,0,0,1-.9-.087,1.205,1.205,0,0,0-1.363.779,4.739,4.739,0,0,1-.354.766H47.8l4.936-7.076a1.205,1.205,0,0,0-.321-1.693L48.9,18.545a1.205,1.205,0,0,0-1.7.38l-1.757,2.91,1.438-7.277a1.205,1.205,0,0,0-.94-1.414l-3.067-.631a1.205,1.205,0,0,0-1.428.96l-.394,2.114H38.239a1.205,1.205,0,0,0-1.205,1.205v6.936a8.934,8.934,0,0,0-8.753-7.207,8.843,8.843,0,0,0-5.362,1.791,9.009,9.009,0,0,0-2.9,3.76,13.4,13.4,0,0,0,.229-2.1,8.959,8.959,0,0,0-1.225-4.518,4.415,4.415,0,0,1,5.024-2.805,1.2,1.2,0,0,0,1.376-.78,4.446,4.446,0,0,1,1.3-1.9A1.205,1.205,0,0,0,25.16,8.144a6.869,6.869,0,0,0-1.612,2.019q-.19-.011-.38-.011a6.828,6.828,0,0,0-5.789,3.215,10.1,10.1,0,0,0-1.915-1.446A6.918,6.918,0,0,1,21.848,7.666Zm22.223,21.1,4.54-7.517,1.44.958-5.193,7.444H43.9Zm-1.508-4.8V20.616c.006-.025.013-.05.018-.076l1.009-5.417.692.142Zm-3.128,3.6a1.231,1.231,0,0,0,.009-.139V18h.709V29.652h-.38q0-.113.005-.227A5.237,5.237,0,0,0,39.435,27.561ZM22.9,21.938l-.106,0a6.506,6.506,0,0,1,11.884,2.317,5.027,5.027,0,0,0-4.061,2.135A8.923,8.923,0,0,0,22.9,21.938Zm6.4,7.714H16.507a6.508,6.508,0,0,1,12.791,0Zm5.417-2.985a2.71,2.71,0,0,1,2.652,2.758c0,.076,0,.152-.01.227H32.072c-.006-.075-.01-.151-.01-.227A2.71,2.71,0,0,1,34.715,26.667ZM9.541,2.411h.482v8.083c-.162,0-.322.006-.482.014ZM2.483,19.022a1.21,1.21,0,0,0,.232.023H8.674a1.205,1.205,0,0,0,0-2.411H3.328a7.842,7.842,0,0,1,6.8-3.732c4.254,0,7.714,3.173,7.714,7.073a12.2,12.2,0,0,1-.242,1.963H12.81a1.205,1.205,0,0,0,0,2.411h4a8.9,8.9,0,0,0-2.747,5.3H4.477c-1.317-4.916-2.066-8.419-2.066-9.677A6.516,6.516,0,0,1,2.483,19.022ZM59.3,39.536H48.7a1.205,1.205,0,1,0,0,2.411H59.3V49.42H21.288a1.205,1.205,0,1,0,0,2.411H59.3V59.3H2.411V51.831H13.018a1.205,1.205,0,0,0,0-2.411H2.411V41.947H40.428a1.205,1.205,0,0,0,0-2.411H2.411V32.063H59.3Z"/></g><g transform="translate(30.525 6.509)"><path class="b" d="M236.554,54h-.016a1.205,1.205,0,1,0,0,2.411h.016a1.205,1.205,0,1,0,0-2.411Z" transform="translate(-235.333 -54)"/></g></g></g></svg>