<svg xmlns="http://www.w3.org/2000/svg" width="101" height="101" viewBox="0 0 101 101"><defs><style>.a{fill:#fff;stroke:#707070;stroke-width:3px;}.b{fill:#5d5d5d;}.c{stroke:none;}.d{fill:none;}</style></defs><g transform="translate(-0.148)"><g class="a" transform="translate(0.148)"><circle class="c" cx="50.5" cy="50.5" r="50.5"/><circle class="d" cx="50.5" cy="50.5" r="49"/></g><g transform="translate(16.55 18.167)"><g transform="translate(59.231 13.669)"><path class="b" d="M448.29,102.4a4.556,4.556,0,1,0,4.556,4.556A4.561,4.561,0,0,0,448.29,102.4Zm0,6.834a2.278,2.278,0,1,1,2.278-2.278A2.28,2.28,0,0,1,448.29,109.234Z" transform="translate(-443.734 -102.4)"/></g><g transform="translate(0 51.258)"><path class="b" d="M4.556,384a4.556,4.556,0,1,0,4.556,4.556A4.561,4.561,0,0,0,4.556,384Zm0,6.834a2.278,2.278,0,1,1,2.278-2.278A2.28,2.28,0,0,1,4.556,390.834Z" transform="translate(0 -384)"/></g><g transform="translate(50.118 10.25)"><path class="b" d="M386.923,81.65,377.1,76.906a1.139,1.139,0,1,0-.99,2.052l9.827,4.744a1.139,1.139,0,0,0,.99-2.052Z" transform="translate(-375.463 -76.792)"/></g><g transform="translate(46.702 59.231)"><path class="b" d="M354.423,443.733a4.556,4.556,0,1,0,4.556,4.556A4.561,4.561,0,0,0,354.423,443.733Zm0,6.834a2.278,2.278,0,1,1,2.278-2.278A2.28,2.28,0,0,1,354.423,450.567Z" transform="translate(-349.867 -443.733)"/></g><g transform="translate(37.589 55.813)"><path class="b" d="M293.056,422.982l-9.827-4.744a1.139,1.139,0,0,0-.99,2.052l9.827,4.744a1.139,1.139,0,0,0,.99-2.052Z" transform="translate(-281.596 -418.124)"/></g><g transform="translate(29.616 30.755)"><path class="b" d="M226.423,230.4a4.556,4.556,0,1,0,4.556,4.556A4.561,4.561,0,0,0,226.423,230.4Zm0,6.834a2.278,2.278,0,1,1,2.278-2.278A2.28,2.28,0,0,1,226.423,237.234Z" transform="translate(-221.867 -230.4)"/></g><g transform="translate(22.781 26.199)"><path class="b" d="M180.053,202.395l-7.549-5.883a1.14,1.14,0,0,0-1.4,1.8l7.549,5.883a1.14,1.14,0,1,0,1.4-1.8Z" transform="translate(-170.664 -196.272)"/></g><g transform="translate(42.145 29.616)"><path class="b" d="M328.263,221.867a12.53,12.53,0,1,0,12.53,12.53A12.545,12.545,0,0,0,328.263,221.867Zm0,22.781A10.252,10.252,0,1,1,338.514,234.4,10.263,10.263,0,0,1,328.263,244.648Z" transform="translate(-315.733 -221.867)"/></g><g transform="translate(50.119 34.172)"><path class="b" d="M380.023,256a4.556,4.556,0,1,0,4.556,4.556A4.561,4.561,0,0,0,380.023,256Zm0,6.834a2.278,2.278,0,1,1,2.278-2.278A2.28,2.28,0,0,1,380.023,262.834Z" transform="translate(-375.467 -256)"/></g><g transform="translate(47.841 45.563)"><path class="b" d="M368.539,341.333H361.93a3.487,3.487,0,0,0-3.53,3.434v3a1.14,1.14,0,0,0,.568.986,12.466,12.466,0,0,0,12.532,0,1.138,1.138,0,0,0,.568-.985v-3A3.487,3.487,0,0,0,368.539,341.333Zm1.252,5.758a10.328,10.328,0,0,1-9.113,0v-2.322a1.209,1.209,0,0,1,1.252-1.157h6.609a1.209,1.209,0,0,1,1.252,1.157v2.322Z" transform="translate(-358.4 -341.333)"/></g><g transform="translate(14.808 43.285)"><path class="b" d="M123.463,324.267a12.53,12.53,0,1,0,12.53,12.53A12.544,12.544,0,0,0,123.463,324.267Zm0,22.781A10.252,10.252,0,1,1,133.714,336.8,10.263,10.263,0,0,1,123.463,347.048Z" transform="translate(-110.933 -324.267)"/></g><g transform="translate(22.781 47.841)"><path class="b" d="M175.223,358.4a4.556,4.556,0,1,0,4.556,4.556A4.561,4.561,0,0,0,175.223,358.4Zm0,6.834a2.278,2.278,0,1,1,2.278-2.278A2.28,2.28,0,0,1,175.223,365.234Z" transform="translate(-170.667 -358.4)"/></g><g transform="translate(20.503 59.231)"><path class="b" d="M163.739,443.733H157.13a3.487,3.487,0,0,0-3.53,3.434v3a1.14,1.14,0,0,0,.568.986,12.466,12.466,0,0,0,12.532,0,1.138,1.138,0,0,0,.568-.985v-3A3.487,3.487,0,0,0,163.739,443.733Zm1.252,5.758a10.328,10.328,0,0,1-9.113,0v-2.322a1.209,1.209,0,0,1,1.252-1.157h6.609a1.209,1.209,0,0,1,1.252,1.157v2.322Z" transform="translate(-153.6 -443.733)"/></g><g transform="translate(0 14.808)"><path class="b" d="M12.53,110.933a12.53,12.53,0,1,0,12.53,12.53A12.545,12.545,0,0,0,12.53,110.933Zm0,22.781a10.252,10.252,0,1,1,10.252-10.252A10.263,10.263,0,0,1,12.53,133.714Z" transform="translate(0 -110.933)"/></g><g transform="translate(7.974 19.364)"><path class="b" d="M64.29,145.067a4.556,4.556,0,1,0,4.556,4.556A4.561,4.561,0,0,0,64.29,145.067Zm0,6.834a2.278,2.278,0,1,1,2.278-2.278A2.28,2.28,0,0,1,64.29,151.9Z" transform="translate(-59.734 -145.067)"/></g><g transform="translate(5.695 30.755)"><path class="b" d="M52.806,230.4H46.2a3.487,3.487,0,0,0-3.53,3.434v3a1.14,1.14,0,0,0,.568.986,12.466,12.466,0,0,0,12.532,0,1.138,1.138,0,0,0,.568-.985v-3A3.488,3.488,0,0,0,52.806,230.4Zm1.252,5.758a10.328,10.328,0,0,1-9.113,0v-2.322a1.209,1.209,0,0,1,1.252-1.157h6.609a1.209,1.209,0,0,1,1.252,1.157v2.322Z" transform="translate(-42.667 -230.4)"/></g><g transform="translate(27.338)"><path class="b" d="M217.33,0a12.53,12.53,0,1,0,12.53,12.53A12.545,12.545,0,0,0,217.33,0Zm0,22.781A10.252,10.252,0,1,1,227.581,12.53,10.263,10.263,0,0,1,217.33,22.781Z" transform="translate(-204.8)"/></g><g transform="translate(35.311 4.556)"><path class="b" d="M269.09,34.133a4.556,4.556,0,1,0,4.556,4.556A4.561,4.561,0,0,0,269.09,34.133Zm0,6.834a2.278,2.278,0,1,1,2.278-2.278A2.28,2.28,0,0,1,269.09,40.967Z" transform="translate(-264.534 -34.133)"/></g><g transform="translate(33.033 15.947)"><path class="b" d="M257.606,119.467H251a3.487,3.487,0,0,0-3.53,3.434v3a1.14,1.14,0,0,0,.568.986,12.466,12.466,0,0,0,12.532,0,1.138,1.138,0,0,0,.568-.985v-3A3.487,3.487,0,0,0,257.606,119.467Zm1.252,5.758a10.328,10.328,0,0,1-9.113,0V122.9A1.209,1.209,0,0,1,251,121.745h6.609a1.209,1.209,0,0,1,1.252,1.157v2.322Z" transform="translate(-247.467 -119.467)"/></g><g transform="translate(19.445 11.391)"><path class="b" d="M155.57,85.731a1.141,1.141,0,0,0-1.606-.124l-7.894,6.755a1.139,1.139,0,1,0,1.481,1.73l7.894-6.755A1.139,1.139,0,0,0,155.57,85.731Z" transform="translate(-145.671 -85.333)"/></g><g transform="translate(45.563 20.505)"><path class="b" d="M350.218,163.178l-6.834-9.113a1.139,1.139,0,0,0-1.823,1.366l6.834,9.113a1.139,1.139,0,0,0,1.823-1.366Z" transform="translate(-341.333 -153.61)"/></g><g transform="translate(36.686 45.457)"><path class="b" d="M283.246,341a1.139,1.139,0,0,0-1.595-.228l-6.363,4.772a1.139,1.139,0,0,0,1.367,1.821l6.363-4.772A1.138,1.138,0,0,0,283.246,341Z" transform="translate(-274.833 -340.54)"/></g><g transform="translate(6.834 54.675)"><path class="b" d="M60.313,409.6H52.339a1.139,1.139,0,1,0,0,2.278h7.973a1.139,1.139,0,0,0,0-2.278Z" transform="translate(-51.2 -409.6)"/></g><g transform="translate(7.973)"><path class="b" d="M64.289,0a4.556,4.556,0,1,0,4.556,4.556A4.561,4.561,0,0,0,64.289,0Zm0,6.834a2.278,2.278,0,1,1,2.278-2.278A2.28,2.28,0,0,1,64.289,6.834Z" transform="translate(-59.733)"/></g><g transform="translate(11.391 6.834)"><path class="b" d="M86.473,51.2a1.139,1.139,0,0,0-1.139,1.139v7.973a1.139,1.139,0,1,0,2.278,0V52.339A1.139,1.139,0,0,0,86.473,51.2Z" transform="translate(-85.334 -51.2)"/></g></g></g></svg>