<svg xmlns="http://www.w3.org/2000/svg" width="73" height="73" viewBox="0 0 73 73"><defs><style>.a{fill:#fff;stroke:#707070;stroke-width:3px;}.b{fill:#5d5d5d;}.c{stroke:none;}.d{fill:none;}</style></defs><g transform="translate(-151 -641)"><g transform="translate(-2 -49)"><g class="a" transform="translate(153 690)"><circle class="c" cx="36.5" cy="36.5" r="36.5"/><circle class="d" cx="36.5" cy="36.5" r="35"/></g><g transform="translate(167 704.93)"><g transform="translate(4.727 39.508)"><path class="b" d="M55.37,451.151l-.008-.006a.876.876,0,0,0-1.066,1.391l.008.006a.876.876,0,0,0,1.066-1.391Z" transform="translate(-53.953 -450.965)"/></g><g transform="translate(4.727 32.324)"><path class="b" d="M55.37,369.151l-.008-.006a.876.876,0,0,0-1.066,1.391l.008.006a.876.876,0,0,0,1.066-1.391Z" transform="translate(-53.953 -368.965)"/></g><g transform="translate(4.727 25.14)"><path class="b" d="M55.37,287.151l-.008-.006a.876.876,0,0,0-1.066,1.391l.008.006a.876.876,0,0,0,1.066-1.391Z" transform="translate(-53.953 -286.965)"/></g><g transform="translate(38.364 39.508)"><path class="b" d="M439.32,451.148l-.008-.006a.876.876,0,1,0-1.058,1.4l.008.006a.876.876,0,1,0,1.058-1.4Z" transform="translate(-437.906 -450.964)"/></g><g transform="translate(38.364 32.324)"><path class="b" d="M439.32,369.149l-.008-.006a.876.876,0,1,0-1.058,1.4l.008.006a.876.876,0,1,0,1.058-1.4Z" transform="translate(-437.907 -368.965)"/></g><g transform="translate(38.364 25.14)"><path class="b" d="M439.32,287.149l-.008-.006a.876.876,0,1,0-1.058,1.4l.008.006a.876.876,0,1,0,1.058-1.4Z" transform="translate(-437.906 -286.965)"/></g><g transform="translate(31.481 28.735)"><path class="b" d="M360.229,328h-.011a.876.876,0,0,0,0,1.752h.011a.876.876,0,0,0,0-1.752Z" transform="translate(-359.342 -328)"/></g><g transform="translate(11.611 35.919)"><path class="b" d="M133.415,410H133.4a.876.876,0,1,0,0,1.752h.011a.876.876,0,1,0,0-1.752Z" transform="translate(-132.528 -410)"/></g><g transform="translate(5.582 15.967)"><path class="b" d="M65.215,182.517a.876.876,0,1,0,.257.62A.883.883,0,0,0,65.215,182.517Z" transform="translate(-63.72 -182.26)"/></g><g transform="translate(0 0)"><path class="b" d="M43.979,21.551H40.34a5.213,5.213,0,0,0-.249-9.182,5.216,5.216,0,0,0-7.312-6.68,6.057,6.057,0,0,0-3.492-1.106c-.085,0-.17,0-.254.006A6.778,6.778,0,0,0,16.51,3.849c-.21-.019-.42-.029-.631-.029A6.782,6.782,0,0,0,9.633,7.964q-.278-.085-.565-.149a3.883,3.883,0,0,1,1.062-2.555,2.348,2.348,0,0,1,1.08-.611l-.012,0h0a.875.875,0,0,0-.126-1.742.867.867,0,0,0-.146.013h0a3.835,3.835,0,0,0-1.888.966V.876A.876.876,0,0,0,8.161,0h-2.1a.876.876,0,0,0-.876.876V4.152A10.542,10.542,0,0,0,3,2.139a.876.876,0,0,0-.959,1.467c.029.019,2.68,1.794,3.073,4.347A6.969,6.969,0,0,0,0,14.518a40.557,40.557,0,0,0,1.441,7.034H.876A.876.876,0,0,0,0,22.428V43.979a.876.876,0,0,0,.876.876h43.1a.876.876,0,0,0,.876-.876V22.428A.876.876,0,0,0,43.979,21.551Zm-28.1-15.98a5.065,5.065,0,0,1,1,.1.876.876,0,0,0,1-.566,5.026,5.026,0,0,1,9.408-.183,6.076,6.076,0,0,0-4.069,5.727.876.876,0,0,0,1.752,0,4.314,4.314,0,0,1,7.176-3.228.876.876,0,0,0,1.107.045,3.431,3.431,0,0,1,2.076-.691A3.461,3.461,0,0,1,38.111,12.3a.876.876,0,0,0,.489,1.373,3.462,3.462,0,0,1-.85,6.818,3.5,3.5,0,0,1-.656-.063.876.876,0,0,0-.99.566,3.445,3.445,0,0,1-.257.557H34.74l3.587-5.143a.876.876,0,0,0-.233-1.231l-2.554-1.7a.876.876,0,0,0-1.235.276L33.027,15.87l1.046-5.289a.876.876,0,0,0-.683-1.028l-2.229-.458a.876.876,0,0,0-1.038.7l-.286,1.536H27.792a.876.876,0,0,0-.876.876v5.041a6.493,6.493,0,0,0-6.362-5.238,6.427,6.427,0,0,0-3.9,1.3,6.548,6.548,0,0,0-2.105,2.733,9.742,9.742,0,0,0,.167-1.525,6.511,6.511,0,0,0-.89-3.284A3.209,3.209,0,0,1,17.479,9.2a.876.876,0,0,0,1-.567,3.231,3.231,0,0,1,.946-1.377.876.876,0,0,0-1.139-1.332,4.993,4.993,0,0,0-1.172,1.467q-.138-.008-.276-.008a4.963,4.963,0,0,0-4.208,2.337,7.343,7.343,0,0,0-1.392-1.051A5.028,5.028,0,0,1,15.879,5.571ZM32.031,20.908l3.3-5.464,1.047.7L32.6,21.551h-.7Zm-1.1-3.492V14.984c0-.018.01-.037.013-.056l.733-3.937.5.1Zm-2.273,2.616a.894.894,0,0,0,.006-.1v-6.85h.515v8.471h-.276q0-.082,0-.165A3.806,3.806,0,0,0,28.662,20.032ZM16.645,15.945l-.077,0a4.728,4.728,0,0,1,8.637,1.684,3.654,3.654,0,0,0-2.951,1.552A6.485,6.485,0,0,0,16.645,15.945Zm4.648,5.607H12a4.73,4.73,0,0,1,9.3,0Zm3.937-2.17a1.969,1.969,0,0,1,1.927,2c0,.055,0,.11-.007.165H23.31c0-.055-.007-.11-.007-.165A1.969,1.969,0,0,1,25.231,19.382ZM6.935,1.752h.35V7.627c-.117,0-.234,0-.35.011ZM1.8,13.825a.879.879,0,0,0,.169.017H6.3a.876.876,0,0,0,0-1.752H2.418A5.7,5.7,0,0,1,7.359,9.377a5.4,5.4,0,0,1,5.607,5.141,8.865,8.865,0,0,1-.176,1.427H9.31a.876.876,0,0,0,0,1.752H12.22a6.473,6.473,0,0,0-2,3.855H3.254a41.494,41.494,0,0,1-1.5-7.034A4.736,4.736,0,0,1,1.8,13.825Zm41.3,14.91H35.393a.876.876,0,1,0,0,1.752H43.1v5.432H15.472a.876.876,0,1,0,0,1.752H43.1V43.1H1.752V37.671H9.462a.876.876,0,1,0,0-1.752H1.752V30.487H29.383a.876.876,0,0,0,0-1.752H1.752V23.3H43.1Z"/></g><g transform="translate(20.617 4.731)"><path class="b" d="M236.221,54h-.012a.876.876,0,0,0,0,1.752h.012a.876.876,0,1,0,0-1.752Z" transform="translate(-235.333 -54)"/></g></g></g></g></svg>